<?xml version="1.0" encoding="UTF-8"?>
<svg id="1" xmlns="http://www.w3.org/2000/svg" viewBox="0 0 663.69 200.9">
    <defs>
        <style>
            .cls-1 {
            fill: #fff;
            stroke-width: 0px;
            }
        </style>
    </defs>
    <g id="2">
        <g>
            <path class="cls-1" d="m253.77,116.45h-31.2v20.88h21.6v14.04h-21.6v21h31.2v14.04h-45.6v-84h45.6v14.04Z"/>
            <path class="cls-1"
                  d="m263.02,124.72v-10.56c0-6.96,6-12.6,13.44-12.6h21.6c7.44,0,13.44,5.64,13.44,12v13.2h-14.4v-7.32c0-2.64-1.8-3.48-4.44-3.48h-10.8c-2.64,0-4.44,1.56-4.44,4.08v3.48c0,3.84,1.44,5.04,4.44,7.08l22.08,16.2c7.32,4.68,8.16,10.8,8.16,16.68v11.16c0,6.96-6,12.6-13.44,12.6h-23.04c-7.44,0-13.44-5.64-13.44-12.6v-12.6h14.4v6.72c0,2.52,1.8,4.08,4.44,4.08h12.24c2.64,0,4.44-1.56,4.44-4.08v-4.08c0-3.84-1.44-5.04-4.44-7.92l-22.08-15.36c-7.32-5.52-8.16-10.8-8.16-16.68Z"/>
            <path class="cls-1"
                  d="m356.5,118.37c0-1.32-.96-2.4-2.4-2.4h-15.6c-1.44,0-2.4,1.08-2.4,2.4v52.08c0,1.32.96,2.4,2.4,2.4h15.6c1.44,0,2.4-1.08,2.4-2.4v-15.6h14.4v19.2c0,7.2-5.88,13.2-13.2,13.2h-22.8c-7.32,0-13.2-5.88-13.2-13.2v-59.28c0-7.32,5.88-13.2,13.2-13.2h22.8c7.32,0,13.2,5.88,13.2,13.2v15.6h-14.4v-12Z"/>
            <path class="cls-1"
                  d="m434.49,175.6c0,6-4.8,10.8-10.8,10.8h-30c-6,0-10.8-4.8-10.8-10.8v-73.2h14.4v67.2c0,1.32,1.08,2.4,2.4,2.4h18c1.32,0,2.4-1.08,2.4-2.4v-67.2h14.4v73.2Z"/>
            <path class="cls-1" d="m492.09,116.45h-31.2v20.88h21.6v14.04h-21.6v21h31.2v14.04h-45.6v-84h45.6v14.04Z"/>
            <path class="cls-1"
                  d="m606.09,186.4h-14.4v-39.48l-13.2,39.48h-10.8l-13.2-39.48v39.48h-14.4v-84h13.2l19.92,58.8,19.68-58.8h13.2v84Z"/>
            <path class="cls-1" d="m663.69,116.45h-31.2v20.88h21.6v14.04h-21.6v21h31.2v14.04h-45.6v-84h45.6v14.04Z"/>
        </g>
    </g>
    <g id="3">
        <rect class="cls-1" x="481.29" y="74.33" width="69.6" height="14.04"/>
        <rect class="cls-1" x="446.02" y="109.31" width="140.16" height="14.04"
              transform="translate(399.77 632.42) rotate(-90)"/>
        <polygon class="cls-1" points="509.07 186.4 523.11 186.4 516.09 200.9 509.07 186.4"/>
    </g>
    <g id="4">
        <g>
            <path class="cls-1" d="m177.58,116.45h-19.2v24.36h12.11l9.49-9.49v-12.47c0-1.32-1.08-2.4-2.4-2.4Z"/>
            <path class="cls-1"
                  d="m194.38,142v-25.09l-14.4,14.4v7.09c0,1.32-1.08,2.4-2.4,2.4h-7.09l-26.51,26.51v19.09h14.4v-31.2h12.72l10.92,31.2h14.76l-11.28-31.92c5.16-1.8,8.88-6.72,8.88-12.48Z"/>
        </g>
        <g id="5">
            <g>
                <path class="cls-1"
                      d="m133.31,59.09l-21.21,21.21,5.83,5.83c5.86,5.86,15.36,5.86,21.21,0h0c5.86-5.86,5.86-15.36,0-21.21l-5.83-5.83Z"/>
                <path class="cls-1"
                      d="m102.02,27.8c-5.86-5.86-15.36-5.86-21.21,0h0c-5.86,5.86-5.86,15.36,0,21.21l5.83,5.83,21.21-21.21-5.83-5.83Z"/>
                <path class="cls-1"
                      d="m120.37,11.45l-2.56,12.53c3.09-2.3,6.8-3.56,10.72-3.56,4.81,0,9.33,1.87,12.73,5.27,7.02,7.02,7.02,18.44,0,25.46l-5.83,5.83,5.83,5.83c7.02,7.02,7.02,18.44,0,25.46-3.4,3.4-7.92,5.27-12.73,5.27-1.43,0-2.83-.19-4.19-.51l4,9.38-17.94,54.06,10.09-54.9-10.64-19.02-5.71,5.71c-3.4,3.4-7.92,5.27-12.73,5.27s-9.33-1.87-12.73-5.27c-3.4-3.4-5.27-7.92-5.27-12.73s1.87-9.33,5.27-12.73l5.83-5.83-5.83-5.83c-3.4-3.4-5.27-7.92-5.27-12.73s1.87-9.33,5.27-12.73c3.4-3.4,7.92-5.27,12.73-5.27,2.51,0,4.94.52,7.18,1.5l1.01-11.04C40.06-29.99-36.92,53.58,19.89,110.39l90.51,90.51,33.58-33.58v-64.91h37.2c7.32,0,13.2,5.88,13.2,13.2v1.31l6.53-6.53c57.09-57.09-20.87-141.18-80.54-98.94Z"/>
            </g>
            <path class="cls-1"
                  d="m139.14,27.8h0c-5.86-5.86-15.36-5.86-21.21,0l-37.12,37.12c-5.86,5.86-5.86,15.36,0,21.21h0c5.86,5.86,15.36,5.86,21.21,0l37.12-37.12c5.86-5.86,5.86-15.36,0-21.21Zm-7.76,19.07c-.78.78-2.05.78-2.83,0s-.78-2.05,0-2.83,2.05-.78,2.83,0,.78,2.05,0,2.83Zm1.55-5.8c-.78.78-2.05.78-2.83,0s-.78-2.05,0-2.83,2.05-.78,2.83,0,.78,2.05,0,2.83Zm-5.8,1.55c-.78.78-2.05.78-2.83,0s-.78-2.05,0-2.83,2.05-.78,2.83,0,.78,2.05,0,2.83Zm7.35-10.18c.78.78.78,2.05,0,2.83s-2.05.78-2.83,0-.78-2.05,0-2.83,2.05-.78,2.83,0Zm-5.8,1.55c.78.78.78,2.05,0,2.83s-2.05.78-2.83,0-.78-2.05,0-2.83,2.05-.78,2.83,0Zm-5.8,1.55c.78.78.78,2.05,0,2.83s-2.05.78-2.83,0-.78-2.05,0-2.83,2.05-.78,2.83,0Zm-34.33,31.51c.78-.78,2.05-.78,2.83,0s.78,2.05,0,2.83-2.05.78-2.83,0-.78-2.05,0-2.83Zm-1.55,5.8c.78-.78,2.05-.78,2.83,0s.78,2.05,0,2.83-2.05.78-2.83,0-.78-2.05,0-2.83Zm5.8-1.55c.78-.78,2.05-.78,2.83,0s.78,2.05,0,2.83-2.05.78-2.83,0-.78-2.05,0-2.83Zm-7.35,10.18c-.78-.78-.78-2.05,0-2.83s2.05-.78,2.83,0,.78,2.05,0,2.83-2.05.78-2.83,0Zm5.8-1.55c-.78-.78-.78-2.05,0-2.83s2.05-.78,2.83,0,.78,2.05,0,2.83-2.05.78-2.83,0Zm5.8-1.55c-.78-.78-.78-2.05,0-2.83s2.05-.78,2.83,0,.78,2.05,0,2.83-2.05.78-2.83,0Zm16.46-10.8c-3.91,3.91-10.24,3.91-14.14,0s-3.91-10.24,0-14.14l7.07-7.07c3.91-3.91,10.24-3.91,14.14,0h0c3.91,3.91,3.91,10.24,0,14.14l-7.07,7.07Z"/>
        </g>
    </g>
</svg>